<svg xmlns="http://www.w3.org/2000/svg" viewBox="0 0 1600 900"><defs><radialGradient id="g"><stop stop-color="#1a0b3c"/><stop offset=".45" stop-color="#08031c"/><stop offset="1" stop-color="#010107"/></radialGradient></defs><rect width="1600" height="900" fill="url(#g)"/><g fill="#fff"><circle cx="41" cy="17" r="2.5" opacity="0.35"/><circle cx="138" cy="70" r="0.8" opacity="0.44999999999999996"/><circle cx="235" cy="123" r="0.8" opacity="0.55"/><circle cx="332" cy="176" r="0.8" opacity="0.65"/><circle cx="429" cy="229" r="0.8" opacity="0.75"/><circle cx="526" cy="282" r="1.6" opacity="0.85"/><circle cx="623" cy="335" r="0.8" opacity="0.35"/><circle cx="720" cy="388" r="0.8" opacity="0.44999999999999996"/><circle cx="817" cy="441" r="0.8" opacity="0.55"/><circle cx="914" cy="494" r="0.8" opacity="0.65"/><circle cx="1011" cy="547" r="1.6" opacity="0.75"/><circle cx="1108" cy="600" r="0.8" opacity="0.85"/><circle cx="1205" cy="653" r="0.8" opacity="0.35"/><circle cx="1302" cy="706" r="2.5" opacity="0.44999999999999996"/><circle cx="1399" cy="759" r="0.8" opacity="0.55"/><circle cx="1496" cy="812" r="1.6" opacity="0.65"/><circle cx="1593" cy="865" r="0.8" opacity="0.75"/><circle cx="90" cy="18" r="0.8" opacity="0.85"/><circle cx="187" cy="71" r="0.8" opacity="0.35"/><circle cx="284" cy="124" r="0.8" opacity="0.44999999999999996"/><circle cx="381" cy="177" r="1.6" opacity="0.55"/><circle cx="478" cy="230" r="0.8" opacity="0.65"/><circle cx="575" cy="283" r="0.8" opacity="0.75"/><circle cx="672" cy="336" r="0.8" opacity="0.85"/><circle cx="769" cy="389" r="0.8" opacity="0.35"/><circle cx="866" cy="442" r="1.6" opacity="0.44999999999999996"/><circle cx="963" cy="495" r="2.5" opacity="0.55"/><circle cx="1060" cy="548" r="0.8" opacity="0.65"/><circle cx="1157" cy="601" r="0.8" opacity="0.75"/><circle cx="1254" cy="654" r="0.8" opacity="0.85"/><circle cx="1351" cy="707" r="1.6" opacity="0.35"/><circle cx="1448" cy="760" r="0.8" opacity="0.44999999999999996"/><circle cx="1545" cy="813" r="0.8" opacity="0.55"/><circle cx="42" cy="866" r="0.8" opacity="0.65"/><circle cx="139" cy="19" r="0.8" opacity="0.75"/><circle cx="236" cy="72" r="1.6" opacity="0.85"/><circle cx="333" cy="125" r="0.8" opacity="0.35"/><circle cx="430" cy="178" r="0.8" opacity="0.44999999999999996"/><circle cx="527" cy="231" r="0.8" opacity="0.55"/><circle cx="624" cy="284" r="2.5" opacity="0.65"/><circle cx="721" cy="337" r="1.6" opacity="0.75"/><circle cx="818" cy="390" r="0.8" opacity="0.85"/><circle cx="915" cy="443" r="0.8" opacity="0.35"/><circle cx="1012" cy="496" r="0.8" opacity="0.44999999999999996"/><circle cx="1109" cy="549" r="0.8" opacity="0.55"/><circle cx="1206" cy="602" r="1.6" opacity="0.65"/><circle cx="1303" cy="655" r="0.8" opacity="0.75"/><circle cx="1400" cy="708" r="0.8" opacity="0.85"/><circle cx="1497" cy="761" r="0.8" opacity="0.35"/><circle cx="1594" cy="814" r="0.8" opacity="0.44999999999999996"/><circle cx="91" cy="867" r="1.6" opacity="0.55"/><circle cx="188" cy="20" r="0.8" opacity="0.65"/><circle cx="285" cy="73" r="2.5" opacity="0.75"/><circle cx="382" cy="126" r="0.8" opacity="0.85"/><circle cx="479" cy="179" r="0.8" opacity="0.35"/><circle cx="576" cy="232" r="1.6" opacity="0.44999999999999996"/><circle cx="673" cy="285" r="0.8" opacity="0.55"/><circle cx="770" cy="338" r="0.8" opacity="0.65"/><circle cx="867" cy="391" r="0.8" opacity="0.75"/><circle cx="964" cy="444" r="0.8" opacity="0.85"/><circle cx="1061" cy="497" r="1.6" opacity="0.35"/><circle cx="1158" cy="550" r="0.8" opacity="0.44999999999999996"/><circle cx="1255" cy="603" r="0.8" opacity="0.55"/><circle cx="1352" cy="656" r="0.8" opacity="0.65"/><circle cx="1449" cy="709" r="0.8" opacity="0.75"/><circle cx="1546" cy="762" r="2.5" opacity="0.85"/><circle cx="43" cy="815" r="0.8" opacity="0.35"/><circle cx="140" cy="868" r="0.8" opacity="0.44999999999999996"/><circle cx="237" cy="21" r="0.8" opacity="0.55"/><circle cx="334" cy="74" r="0.8" opacity="0.65"/><circle cx="431" cy="127" r="1.6" opacity="0.75"/><circle cx="528" cy="180" r="0.8" opacity="0.85"/><circle cx="625" cy="233" r="0.8" opacity="0.35"/><circle cx="722" cy="286" r="0.8" opacity="0.44999999999999996"/><circle cx="819" cy="339" r="0.8" opacity="0.55"/><circle cx="916" cy="392" r="1.6" opacity="0.65"/><circle cx="1013" cy="445" r="0.8" opacity="0.75"/><circle cx="1110" cy="498" r="0.8" opacity="0.85"/><circle cx="1207" cy="551" r="2.5" opacity="0.35"/><circle cx="1304" cy="604" r="0.8" opacity="0.44999999999999996"/><circle cx="1401" cy="657" r="1.6" opacity="0.55"/><circle cx="1498" cy="710" r="0.8" opacity="0.65"/><circle cx="1595" cy="763" r="0.8" opacity="0.75"/><circle cx="92" cy="816" r="0.8" opacity="0.85"/><circle cx="189" cy="869" r="0.8" opacity="0.35"/><circle cx="286" cy="22" r="1.6" opacity="0.44999999999999996"/><circle cx="383" cy="75" r="0.8" opacity="0.55"/><circle cx="480" cy="128" r="0.8" opacity="0.65"/><circle cx="577" cy="181" r="0.8" opacity="0.75"/><circle cx="674" cy="234" r="0.8" opacity="0.85"/><circle cx="771" cy="287" r="1.6" opacity="0.35"/><circle cx="868" cy="340" r="2.5" opacity="0.44999999999999996"/><circle cx="965" cy="393" r="0.8" opacity="0.55"/><circle cx="1062" cy="446" r="0.8" opacity="0.65"/><circle cx="1159" cy="499" r="0.8" opacity="0.75"/><circle cx="1256" cy="552" r="1.6" opacity="0.85"/><circle cx="1353" cy="605" r="0.8" opacity="0.35"/><circle cx="1450" cy="658" r="0.8" opacity="0.44999999999999996"/><circle cx="1547" cy="711" r="0.8" opacity="0.55"/><circle cx="44" cy="764" r="0.8" opacity="0.65"/><circle cx="141" cy="817" r="1.6" opacity="0.75"/><circle cx="238" cy="870" r="0.8" opacity="0.85"/><circle cx="335" cy="23" r="0.8" opacity="0.35"/><circle cx="432" cy="76" r="0.8" opacity="0.44999999999999996"/><circle cx="529" cy="129" r="2.5" opacity="0.55"/><circle cx="626" cy="182" r="1.6" opacity="0.65"/><circle cx="723" cy="235" r="0.8" opacity="0.75"/><circle cx="820" cy="288" r="0.8" opacity="0.85"/><circle cx="917" cy="341" r="0.8" opacity="0.35"/><circle cx="1014" cy="394" r="0.8" opacity="0.44999999999999996"/><circle cx="1111" cy="447" r="1.6" opacity="0.55"/><circle cx="1208" cy="500" r="0.8" opacity="0.65"/><circle cx="1305" cy="553" r="0.8" opacity="0.75"/><circle cx="1402" cy="606" r="0.8" opacity="0.85"/><circle cx="1499" cy="659" r="0.8" opacity="0.35"/><circle cx="1596" cy="712" r="1.6" opacity="0.44999999999999996"/><circle cx="93" cy="765" r="0.8" opacity="0.55"/><circle cx="190" cy="818" r="2.5" opacity="0.65"/><circle cx="287" cy="871" r="0.8" opacity="0.75"/><circle cx="384" cy="24" r="0.8" opacity="0.85"/><circle cx="481" cy="77" r="1.6" opacity="0.35"/><circle cx="578" cy="130" r="0.8" opacity="0.44999999999999996"/><circle cx="675" cy="183" r="0.8" opacity="0.55"/><circle cx="772" cy="236" r="0.8" opacity="0.65"/><circle cx="869" cy="289" r="0.8" opacity="0.75"/><circle cx="966" cy="342" r="1.6" opacity="0.85"/><circle cx="1063" cy="395" r="0.8" opacity="0.35"/><circle cx="1160" cy="448" r="0.8" opacity="0.44999999999999996"/><circle cx="1257" cy="501" r="0.8" opacity="0.55"/><circle cx="1354" cy="554" r="0.8" opacity="0.65"/><circle cx="1451" cy="607" r="2.5" opacity="0.75"/><circle cx="1548" cy="660" r="0.8" opacity="0.85"/><circle cx="45" cy="713" r="0.8" opacity="0.35"/><circle cx="142" cy="766" r="0.8" opacity="0.44999999999999996"/><circle cx="239" cy="819" r="0.8" opacity="0.55"/><circle cx="336" cy="872" r="1.6" opacity="0.65"/><circle cx="433" cy="25" r="0.8" opacity="0.75"/><circle cx="530" cy="78" r="0.8" opacity="0.85"/><circle cx="627" cy="131" r="0.8" opacity="0.35"/><circle cx="724" cy="184" r="0.8" opacity="0.44999999999999996"/><circle cx="821" cy="237" r="1.6" opacity="0.55"/><circle cx="918" cy="290" r="0.8" opacity="0.65"/><circle cx="1015" cy="343" r="0.8" opacity="0.75"/><circle cx="1112" cy="396" r="2.5" opacity="0.85"/><circle cx="1209" cy="449" r="0.8" opacity="0.35"/><circle cx="1306" cy="502" r="1.6" opacity="0.44999999999999996"/><circle cx="1403" cy="555" r="0.8" opacity="0.55"/><circle cx="1500" cy="608" r="0.8" opacity="0.65"/><circle cx="1597" cy="661" r="0.8" opacity="0.75"/><circle cx="94" cy="714" r="0.8" opacity="0.85"/><circle cx="191" cy="767" r="1.6" opacity="0.35"/><circle cx="288" cy="820" r="0.8" opacity="0.44999999999999996"/><circle cx="385" cy="873" r="0.8" opacity="0.55"/><circle cx="482" cy="26" r="0.8" opacity="0.65"/><circle cx="579" cy="79" r="0.8" opacity="0.75"/><circle cx="676" cy="132" r="1.6" opacity="0.85"/><circle cx="773" cy="185" r="2.5" opacity="0.35"/><circle cx="870" cy="238" r="0.8" opacity="0.44999999999999996"/><circle cx="967" cy="291" r="0.8" opacity="0.55"/><circle cx="1064" cy="344" r="0.8" opacity="0.65"/><circle cx="1161" cy="397" r="1.6" opacity="0.75"/><circle cx="1258" cy="450" r="0.8" opacity="0.85"/><circle cx="1355" cy="503" r="0.8" opacity="0.35"/><circle cx="1452" cy="556" r="0.8" opacity="0.44999999999999996"/><circle cx="1549" cy="609" r="0.8" opacity="0.55"/><circle cx="46" cy="662" r="1.6" opacity="0.65"/><circle cx="143" cy="715" r="0.8" opacity="0.75"/><circle cx="240" cy="768" r="0.8" opacity="0.85"/><circle cx="337" cy="821" r="0.8" opacity="0.35"/><circle cx="434" cy="874" r="2.5" opacity="0.44999999999999996"/><circle cx="531" cy="27" r="1.6" opacity="0.55"/><circle cx="628" cy="80" r="0.8" opacity="0.65"/><circle cx="725" cy="133" r="0.8" opacity="0.75"/><circle cx="822" cy="186" r="0.8" opacity="0.85"/><circle cx="919" cy="239" r="0.8" opacity="0.35"/><circle cx="1016" cy="292" r="1.6" opacity="0.44999999999999996"/><circle cx="1113" cy="345" r="0.8" opacity="0.55"/><circle cx="1210" cy="398" r="0.8" opacity="0.65"/><circle cx="1307" cy="451" r="0.8" opacity="0.75"/><circle cx="1404" cy="504" r="0.8" opacity="0.85"/></g><path d="M-100 700 C350 350 600 950 1050 520 S1500 200 1700 500" fill="none" stroke="#7c3aed" stroke-opacity=".16" stroke-width="180" filter="blur(35px)"/></svg>