<svg xmlns="http://www.w3.org/2000/svg" viewBox="0 0 1600 900"><defs><radialGradient id="bg"><stop stop-color="#120a2e"/><stop offset=".5" stop-color="#050313"/><stop offset="1" stop-color="#010106"/></radialGradient><radialGradient id="hole"><stop stop-color="#000" offset=".0"/><stop offset=".48" stop-color="#000"/><stop offset=".58" stop-color="#a855f7"/><stop offset=".72" stop-color="#4c1d95"/><stop offset="1" stop-color="#000" stop-opacity="0"/></radialGradient><filter id="blur"><feGaussianBlur stdDeviation="16"/></filter></defs><rect width="1600" height="900" fill="url(#bg)"/><ellipse cx="1130" cy="455" rx="360" ry="95" fill="#8b5cf6" opacity=".18" filter="url(#blur)" transform="rotate(-15 1130 455)"/><ellipse cx="1130" cy="455" rx="260" ry="58" fill="none" stroke="#d8b4fe" stroke-opacity=".35" stroke-width="16" transform="rotate(-15 1130 455)"/><circle cx="1130" cy="455" r="120" fill="url(#hole)"/><circle cx="1130" cy="455" r="42" fill="#000"/><g fill="#fff" opacity=".8"><circle cx="31" cy="29" r="2"/><circle cx="144" cy="96" r="0.7"/><circle cx="257" cy="163" r="0.7"/><circle cx="370" cy="230" r="0.7"/><circle cx="483" cy="297" r="0.7"/><circle cx="596" cy="364" r="0.7"/><circle cx="709" cy="431" r="0.7"/><circle cx="822" cy="498" r="0.7"/><circle cx="935" cy="565" r="0.7"/><circle cx="1048" cy="632" r="0.7"/><circle cx="1161" cy="699" r="0.7"/><circle cx="1274" cy="766" r="0.7"/><circle cx="1387" cy="833" r="0.7"/><circle cx="1500" cy="0" r="0.7"/><circle cx="13" cy="67" r="0.7"/><circle cx="126" cy="134" r="0.7"/><circle cx="239" cy="201" r="0.7"/><circle cx="352" cy="268" r="0.7"/><circle cx="465" cy="335" r="0.7"/><circle cx="578" cy="402" r="2"/><circle cx="691" cy="469" r="0.7"/><circle cx="804" cy="536" r="0.7"/><circle cx="917" cy="603" r="0.7"/><circle cx="1030" cy="670" r="0.7"/><circle cx="1143" cy="737" r="0.7"/><circle cx="1256" cy="804" r="0.7"/><circle cx="1369" cy="871" r="0.7"/><circle cx="1482" cy="38" r="0.7"/><circle cx="1595" cy="105" r="0.7"/><circle cx="108" cy="172" r="0.7"/><circle cx="221" cy="239" r="0.7"/><circle cx="334" cy="306" r="0.7"/><circle cx="447" cy="373" r="0.7"/><circle cx="560" cy="440" r="0.7"/><circle cx="673" cy="507" r="0.7"/><circle cx="786" cy="574" r="0.7"/><circle cx="899" cy="641" r="0.7"/><circle cx="1012" cy="708" r="0.7"/><circle cx="1125" cy="775" r="2"/><circle cx="1238" cy="842" r="0.7"/><circle cx="1351" cy="9" r="0.7"/><circle cx="1464" cy="76" r="0.7"/><circle cx="1577" cy="143" r="0.7"/><circle cx="90" cy="210" r="0.7"/><circle cx="203" cy="277" r="0.7"/><circle cx="316" cy="344" r="0.7"/><circle cx="429" cy="411" r="0.7"/><circle cx="542" cy="478" r="0.7"/><circle cx="655" cy="545" r="0.7"/><circle cx="768" cy="612" r="0.7"/><circle cx="881" cy="679" r="0.7"/><circle cx="994" cy="746" r="0.7"/><circle cx="1107" cy="813" r="0.7"/><circle cx="1220" cy="880" r="0.7"/><circle cx="1333" cy="47" r="0.7"/><circle cx="1446" cy="114" r="0.7"/><circle cx="1559" cy="181" r="0.7"/><circle cx="72" cy="248" r="2"/><circle cx="185" cy="315" r="0.7"/><circle cx="298" cy="382" r="0.7"/><circle cx="411" cy="449" r="0.7"/><circle cx="524" cy="516" r="0.7"/><circle cx="637" cy="583" r="0.7"/><circle cx="750" cy="650" r="0.7"/><circle cx="863" cy="717" r="0.7"/><circle cx="976" cy="784" r="0.7"/><circle cx="1089" cy="851" r="0.7"/><circle cx="1202" cy="18" r="0.7"/><circle cx="1315" cy="85" r="0.7"/><circle cx="1428" cy="152" r="0.7"/><circle cx="1541" cy="219" r="0.7"/><circle cx="54" cy="286" r="0.7"/><circle cx="167" cy="353" r="0.7"/><circle cx="280" cy="420" r="0.7"/><circle cx="393" cy="487" r="0.7"/><circle cx="506" cy="554" r="0.7"/><circle cx="619" cy="621" r="2"/><circle cx="732" cy="688" r="0.7"/><circle cx="845" cy="755" r="0.7"/><circle cx="958" cy="822" r="0.7"/><circle cx="1071" cy="889" r="0.7"/><circle cx="1184" cy="56" r="0.7"/><circle cx="1297" cy="123" r="0.7"/><circle cx="1410" cy="190" r="0.7"/><circle cx="1523" cy="257" r="0.7"/><circle cx="36" cy="324" r="0.7"/><circle cx="149" cy="391" r="0.7"/><circle cx="262" cy="458" r="0.7"/><circle cx="375" cy="525" r="0.7"/><circle cx="488" cy="592" r="0.7"/><circle cx="601" cy="659" r="0.7"/><circle cx="714" cy="726" r="0.7"/><circle cx="827" cy="793" r="0.7"/><circle cx="940" cy="860" r="0.7"/><circle cx="1053" cy="27" r="0.7"/><circle cx="1166" cy="94" r="2"/><circle cx="1279" cy="161" r="0.7"/><circle cx="1392" cy="228" r="0.7"/><circle cx="1505" cy="295" r="0.7"/><circle cx="18" cy="362" r="0.7"/><circle cx="131" cy="429" r="0.7"/><circle cx="244" cy="496" r="0.7"/><circle cx="357" cy="563" r="0.7"/><circle cx="470" cy="630" r="0.7"/><circle cx="583" cy="697" r="0.7"/><circle cx="696" cy="764" r="0.7"/><circle cx="809" cy="831" r="0.7"/><circle cx="922" cy="898" r="0.7"/><circle cx="1035" cy="65" r="0.7"/><circle cx="1148" cy="132" r="0.7"/><circle cx="1261" cy="199" r="0.7"/><circle cx="1374" cy="266" r="0.7"/><circle cx="1487" cy="333" r="0.7"/><circle cx="0" cy="400" r="0.7"/><circle cx="113" cy="467" r="2"/><circle cx="226" cy="534" r="0.7"/><circle cx="339" cy="601" r="0.7"/><circle cx="452" cy="668" r="0.7"/><circle cx="565" cy="735" r="0.7"/><circle cx="678" cy="802" r="0.7"/><circle cx="791" cy="869" r="0.7"/><circle cx="904" cy="36" r="0.7"/><circle cx="1017" cy="103" r="0.7"/><circle cx="1130" cy="170" r="0.7"/><circle cx="1243" cy="237" r="0.7"/><circle cx="1356" cy="304" r="0.7"/><circle cx="1469" cy="371" r="0.7"/><circle cx="1582" cy="438" r="0.7"/><circle cx="95" cy="505" r="0.7"/><circle cx="208" cy="572" r="0.7"/><circle cx="321" cy="639" r="0.7"/><circle cx="434" cy="706" r="0.7"/><circle cx="547" cy="773" r="0.7"/><circle cx="660" cy="840" r="2"/><circle cx="773" cy="7" r="0.7"/><circle cx="886" cy="74" r="0.7"/><circle cx="999" cy="141" r="0.7"/><circle cx="1112" cy="208" r="0.7"/><circle cx="1225" cy="275" r="0.7"/><circle cx="1338" cy="342" r="0.7"/><circle cx="1451" cy="409" r="0.7"/><circle cx="1564" cy="476" r="0.7"/><circle cx="77" cy="543" r="0.7"/><circle cx="190" cy="610" r="0.7"/><circle cx="303" cy="677" r="0.7"/><circle cx="416" cy="744" r="0.7"/><circle cx="529" cy="811" r="0.7"/><circle cx="642" cy="878" r="0.7"/><circle cx="755" cy="45" r="0.7"/><circle cx="868" cy="112" r="0.7"/><circle cx="981" cy="179" r="0.7"/><circle cx="1094" cy="246" r="0.7"/><circle cx="1207" cy="313" r="2"/><circle cx="1320" cy="380" r="0.7"/><circle cx="1433" cy="447" r="0.7"/><circle cx="1546" cy="514" r="0.7"/><circle cx="59" cy="581" r="0.7"/><circle cx="172" cy="648" r="0.7"/><circle cx="285" cy="715" r="0.7"/><circle cx="398" cy="782" r="0.7"/><circle cx="511" cy="849" r="0.7"/><circle cx="624" cy="16" r="0.7"/><circle cx="737" cy="83" r="0.7"/><circle cx="850" cy="150" r="0.7"/><circle cx="963" cy="217" r="0.7"/><circle cx="1076" cy="284" r="0.7"/><circle cx="1189" cy="351" r="0.7"/><circle cx="1302" cy="418" r="0.7"/><circle cx="1415" cy="485" r="0.7"/><circle cx="1528" cy="552" r="0.7"/></g><path d="M100 760 C420 650 580 780 820 690" fill="none" stroke="#6d28d9" stroke-opacity=".16" stroke-width="90" filter="url(#blur)"/></svg>