<svg xmlns="http://www.w3.org/2000/svg" viewBox="0 0 1600 900"><defs><radialGradient id="b"><stop stop-color="#3c176e"/><stop offset=".5" stop-color="#120727"/><stop offset="1" stop-color="#030208"/></radialGradient><linearGradient id="n" x1="0" y1="1" x2="1" y2="0"><stop stop-color="#7c3aed" stop-opacity="0"/><stop offset=".5" stop-color="#d946ef" stop-opacity=".45"/><stop offset="1" stop-color="#38bdf8" stop-opacity="0"/></linearGradient></defs><rect width="1600" height="900" fill="url(#b)"/><ellipse cx="800" cy="480" rx="680" ry="190" fill="url(#n)" transform="rotate(-18 800 480)"/><g fill="#fff" opacity=".8"><circle cx="0" cy="0" r="2"/><circle cx="149" cy="83" r="1"/><circle cx="298" cy="166" r="1"/><circle cx="447" cy="249" r="1"/><circle cx="596" cy="332" r="1"/><circle cx="745" cy="415" r="1"/><circle cx="894" cy="498" r="1"/><circle cx="1043" cy="581" r="2"/><circle cx="1192" cy="664" r="1"/><circle cx="1341" cy="747" r="1"/><circle cx="1490" cy="830" r="1"/><circle cx="39" cy="13" r="1"/><circle cx="188" cy="96" r="1"/><circle cx="337" cy="179" r="1"/><circle cx="486" cy="262" r="2"/><circle cx="635" cy="345" r="1"/><circle cx="784" cy="428" r="1"/><circle cx="933" cy="511" r="1"/><circle cx="1082" cy="594" r="1"/><circle cx="1231" cy="677" r="1"/><circle cx="1380" cy="760" r="1"/><circle cx="1529" cy="843" r="2"/><circle cx="78" cy="26" r="1"/><circle cx="227" cy="109" r="1"/><circle cx="376" cy="192" r="1"/><circle cx="525" cy="275" r="1"/><circle cx="674" cy="358" r="1"/><circle cx="823" cy="441" r="1"/><circle cx="972" cy="524" r="2"/><circle cx="1121" cy="607" r="1"/><circle cx="1270" cy="690" r="1"/><circle cx="1419" cy="773" r="1"/><circle cx="1568" cy="856" r="1"/><circle cx="117" cy="39" r="1"/><circle cx="266" cy="122" r="1"/><circle cx="415" cy="205" r="2"/><circle cx="564" cy="288" r="1"/><circle cx="713" cy="371" r="1"/><circle cx="862" cy="454" r="1"/><circle cx="1011" cy="537" r="1"/><circle cx="1160" cy="620" r="1"/><circle cx="1309" cy="703" r="1"/><circle cx="1458" cy="786" r="2"/><circle cx="7" cy="869" r="1"/><circle cx="156" cy="52" r="1"/><circle cx="305" cy="135" r="1"/><circle cx="454" cy="218" r="1"/><circle cx="603" cy="301" r="1"/><circle cx="752" cy="384" r="1"/><circle cx="901" cy="467" r="2"/><circle cx="1050" cy="550" r="1"/><circle cx="1199" cy="633" r="1"/><circle cx="1348" cy="716" r="1"/><circle cx="1497" cy="799" r="1"/><circle cx="46" cy="882" r="1"/><circle cx="195" cy="65" r="1"/><circle cx="344" cy="148" r="2"/><circle cx="493" cy="231" r="1"/><circle cx="642" cy="314" r="1"/><circle cx="791" cy="397" r="1"/><circle cx="940" cy="480" r="1"/><circle cx="1089" cy="563" r="1"/><circle cx="1238" cy="646" r="1"/><circle cx="1387" cy="729" r="2"/><circle cx="1536" cy="812" r="1"/><circle cx="85" cy="895" r="1"/><circle cx="234" cy="78" r="1"/><circle cx="383" cy="161" r="1"/><circle cx="532" cy="244" r="1"/><circle cx="681" cy="327" r="1"/><circle cx="830" cy="410" r="2"/><circle cx="979" cy="493" r="1"/><circle cx="1128" cy="576" r="1"/><circle cx="1277" cy="659" r="1"/><circle cx="1426" cy="742" r="1"/><circle cx="1575" cy="825" r="1"/><circle cx="124" cy="8" r="1"/><circle cx="273" cy="91" r="2"/><circle cx="422" cy="174" r="1"/><circle cx="571" cy="257" r="1"/><circle cx="720" cy="340" r="1"/><circle cx="869" cy="423" r="1"/><circle cx="1018" cy="506" r="1"/><circle cx="1167" cy="589" r="1"/><circle cx="1316" cy="672" r="2"/><circle cx="1465" cy="755" r="1"/><circle cx="14" cy="838" r="1"/><circle cx="163" cy="21" r="1"/><circle cx="312" cy="104" r="1"/><circle cx="461" cy="187" r="1"/><circle cx="610" cy="270" r="1"/><circle cx="759" cy="353" r="2"/><circle cx="908" cy="436" r="1"/><circle cx="1057" cy="519" r="1"/><circle cx="1206" cy="602" r="1"/><circle cx="1355" cy="685" r="1"/><circle cx="1504" cy="768" r="1"/><circle cx="53" cy="851" r="1"/><circle cx="202" cy="34" r="2"/><circle cx="351" cy="117" r="1"/><circle cx="500" cy="200" r="1"/><circle cx="649" cy="283" r="1"/><circle cx="798" cy="366" r="1"/><circle cx="947" cy="449" r="1"/><circle cx="1096" cy="532" r="1"/><circle cx="1245" cy="615" r="2"/><circle cx="1394" cy="698" r="1"/><circle cx="1543" cy="781" r="1"/><circle cx="92" cy="864" r="1"/><circle cx="241" cy="47" r="1"/><circle cx="390" cy="130" r="1"/><circle cx="539" cy="213" r="1"/><circle cx="688" cy="296" r="2"/><circle cx="837" cy="379" r="1"/><circle cx="986" cy="462" r="1"/><circle cx="1135" cy="545" r="1"/><circle cx="1284" cy="628" r="1"/><circle cx="1433" cy="711" r="1"/><circle cx="1582" cy="794" r="1"/><circle cx="131" cy="877" r="2"/></g></svg>