<svg xmlns="http://www.w3.org/2000/svg" viewBox="0 0 1600 900"><defs><radialGradient id="b"><stop stop-color="#111b38"/><stop offset=".55" stop-color="#040713"/><stop offset="1" stop-color="#000105"/></radialGradient><radialGradient id="gl"><stop stop-color="#dff8ff" stop-opacity=".5"/><stop offset="1" stop-color="#5ca9ff" stop-opacity="0"/></radialGradient><filter id="blur"><feGaussianBlur stdDeviation="30"/></filter></defs><rect width="1600" height="900" fill="url(#b)"/><ellipse cx="800" cy="460" rx="680" ry="210" fill="url(#gl)" opacity=".12" filter="url(#blur)"/><g fill="#fff"><circle cx="73" cy="19" r="2.5" opacity="0.2"/><circle cx="210" cy="102" r="0.5" opacity="0.28"/><circle cx="347" cy="185" r="0.5" opacity="0.36"/><circle cx="484" cy="268" r="0.5" opacity="0.44"/><circle cx="621" cy="351" r="0.5" opacity="0.52"/><circle cx="758" cy="434" r="0.5" opacity="0.6000000000000001"/><circle cx="895" cy="517" r="0.5" opacity="0.6799999999999999"/><circle cx="1032" cy="600" r="0.5" opacity="0.76"/><circle cx="1169" cy="683" r="0.5" opacity="0.8400000000000001"/><circle cx="1306" cy="766" r="0.5" opacity="0.2"/><circle cx="1443" cy="849" r="0.5" opacity="0.28"/><circle cx="1580" cy="32" r="1.5" opacity="0.36"/><circle cx="117" cy="115" r="0.5" opacity="0.44"/><circle cx="254" cy="198" r="0.5" opacity="0.52"/><circle cx="391" cy="281" r="0.5" opacity="0.6000000000000001"/><circle cx="528" cy="364" r="0.5" opacity="0.6799999999999999"/><circle cx="665" cy="447" r="0.5" opacity="0.76"/><circle cx="802" cy="530" r="0.5" opacity="0.8400000000000001"/><circle cx="939" cy="613" r="0.5" opacity="0.2"/><circle cx="1076" cy="696" r="0.5" opacity="0.28"/><circle cx="1213" cy="779" r="0.5" opacity="0.36"/><circle cx="1350" cy="862" r="0.5" opacity="0.44"/><circle cx="1487" cy="45" r="1.5" opacity="0.52"/><circle cx="24" cy="128" r="0.5" opacity="0.6000000000000001"/><circle cx="161" cy="211" r="0.5" opacity="0.6799999999999999"/><circle cx="298" cy="294" r="0.5" opacity="0.76"/><circle cx="435" cy="377" r="0.5" opacity="0.8400000000000001"/><circle cx="572" cy="460" r="0.5" opacity="0.2"/><circle cx="709" cy="543" r="0.5" opacity="0.28"/><circle cx="846" cy="626" r="0.5" opacity="0.36"/><circle cx="983" cy="709" r="0.5" opacity="0.44"/><circle cx="1120" cy="792" r="0.5" opacity="0.52"/><circle cx="1257" cy="875" r="0.5" opacity="0.6000000000000001"/><circle cx="1394" cy="58" r="1.5" opacity="0.6799999999999999"/><circle cx="1531" cy="141" r="0.5" opacity="0.76"/><circle cx="68" cy="224" r="0.5" opacity="0.8400000000000001"/><circle cx="205" cy="307" r="0.5" opacity="0.2"/><circle cx="342" cy="390" r="2.5" opacity="0.28"/><circle cx="479" cy="473" r="0.5" opacity="0.36"/><circle cx="616" cy="556" r="0.5" opacity="0.44"/><circle cx="753" cy="639" r="0.5" opacity="0.52"/><circle cx="890" cy="722" r="0.5" opacity="0.6000000000000001"/><circle cx="1027" cy="805" r="0.5" opacity="0.6799999999999999"/><circle cx="1164" cy="888" r="0.5" opacity="0.76"/><circle cx="1301" cy="71" r="1.5" opacity="0.8400000000000001"/><circle cx="1438" cy="154" r="0.5" opacity="0.2"/><circle cx="1575" cy="237" r="0.5" opacity="0.28"/><circle cx="112" cy="320" r="0.5" opacity="0.36"/><circle cx="249" cy="403" r="0.5" opacity="0.44"/><circle cx="386" cy="486" r="0.5" opacity="0.52"/><circle cx="523" cy="569" r="0.5" opacity="0.6000000000000001"/><circle cx="660" cy="652" r="0.5" opacity="0.6799999999999999"/><circle cx="797" cy="735" r="0.5" opacity="0.76"/><circle cx="934" cy="818" r="0.5" opacity="0.8400000000000001"/><circle cx="1071" cy="1" r="0.5" opacity="0.2"/><circle cx="1208" cy="84" r="1.5" opacity="0.28"/><circle cx="1345" cy="167" r="0.5" opacity="0.36"/><circle cx="1482" cy="250" r="0.5" opacity="0.44"/><circle cx="19" cy="333" r="0.5" opacity="0.52"/><circle cx="156" cy="416" r="0.5" opacity="0.6000000000000001"/><circle cx="293" cy="499" r="0.5" opacity="0.6799999999999999"/><circle cx="430" cy="582" r="0.5" opacity="0.76"/><circle cx="567" cy="665" r="0.5" opacity="0.8400000000000001"/><circle cx="704" cy="748" r="0.5" opacity="0.2"/><circle cx="841" cy="831" r="0.5" opacity="0.28"/><circle cx="978" cy="14" r="0.5" opacity="0.36"/><circle cx="1115" cy="97" r="1.5" opacity="0.44"/><circle cx="1252" cy="180" r="0.5" opacity="0.52"/><circle cx="1389" cy="263" r="0.5" opacity="0.6000000000000001"/><circle cx="1526" cy="346" r="0.5" opacity="0.6799999999999999"/><circle cx="63" cy="429" r="0.5" opacity="0.76"/><circle cx="200" cy="512" r="0.5" opacity="0.8400000000000001"/><circle cx="337" cy="595" r="0.5" opacity="0.2"/><circle cx="474" cy="678" r="0.5" opacity="0.28"/><circle cx="611" cy="761" r="2.5" opacity="0.36"/><circle cx="748" cy="844" r="0.5" opacity="0.44"/><circle cx="885" cy="27" r="0.5" opacity="0.52"/><circle cx="1022" cy="110" r="1.5" opacity="0.6000000000000001"/><circle cx="1159" cy="193" r="0.5" opacity="0.6799999999999999"/><circle cx="1296" cy="276" r="0.5" opacity="0.76"/><circle cx="1433" cy="359" r="0.5" opacity="0.8400000000000001"/><circle cx="1570" cy="442" r="0.5" opacity="0.2"/><circle cx="107" cy="525" r="0.5" opacity="0.28"/><circle cx="244" cy="608" r="0.5" opacity="0.36"/><circle cx="381" cy="691" r="0.5" opacity="0.44"/><circle cx="518" cy="774" r="0.5" opacity="0.52"/><circle cx="655" cy="857" r="0.5" opacity="0.6000000000000001"/><circle cx="792" cy="40" r="0.5" opacity="0.6799999999999999"/><circle cx="929" cy="123" r="1.5" opacity="0.76"/><circle cx="1066" cy="206" r="0.5" opacity="0.8400000000000001"/><circle cx="1203" cy="289" r="0.5" opacity="0.2"/><circle cx="1340" cy="372" r="0.5" opacity="0.28"/><circle cx="1477" cy="455" r="0.5" opacity="0.36"/><circle cx="14" cy="538" r="0.5" opacity="0.44"/><circle cx="151" cy="621" r="0.5" opacity="0.52"/><circle cx="288" cy="704" r="0.5" opacity="0.6000000000000001"/><circle cx="425" cy="787" r="0.5" opacity="0.6799999999999999"/><circle cx="562" cy="870" r="0.5" opacity="0.76"/><circle cx="699" cy="53" r="0.5" opacity="0.8400000000000001"/><circle cx="836" cy="136" r="1.5" opacity="0.2"/><circle cx="973" cy="219" r="0.5" opacity="0.28"/><circle cx="1110" cy="302" r="0.5" opacity="0.36"/><circle cx="1247" cy="385" r="0.5" opacity="0.44"/><circle cx="1384" cy="468" r="0.5" opacity="0.52"/><circle cx="1521" cy="551" r="0.5" opacity="0.6000000000000001"/><circle cx="58" cy="634" r="0.5" opacity="0.6799999999999999"/><circle cx="195" cy="717" r="0.5" opacity="0.76"/><circle cx="332" cy="800" r="0.5" opacity="0.8400000000000001"/><circle cx="469" cy="883" r="0.5" opacity="0.2"/><circle cx="606" cy="66" r="0.5" opacity="0.28"/><circle cx="743" cy="149" r="1.5" opacity="0.36"/><circle cx="880" cy="232" r="2.5" opacity="0.44"/><circle cx="1017" cy="315" r="0.5" opacity="0.52"/><circle cx="1154" cy="398" r="0.5" opacity="0.6000000000000001"/><circle cx="1291" cy="481" r="0.5" opacity="0.6799999999999999"/><circle cx="1428" cy="564" r="0.5" opacity="0.76"/><circle cx="1565" cy="647" r="0.5" opacity="0.8400000000000001"/><circle cx="102" cy="730" r="0.5" opacity="0.2"/><circle cx="239" cy="813" r="0.5" opacity="0.28"/><circle cx="376" cy="896" r="0.5" opacity="0.36"/><circle cx="513" cy="79" r="0.5" opacity="0.44"/><circle cx="650" cy="162" r="1.5" opacity="0.52"/><circle cx="787" cy="245" r="0.5" opacity="0.6000000000000001"/><circle cx="924" cy="328" r="0.5" opacity="0.6799999999999999"/><circle cx="1061" cy="411" r="0.5" opacity="0.76"/><circle cx="1198" cy="494" r="0.5" opacity="0.8400000000000001"/><circle cx="1335" cy="577" r="0.5" opacity="0.2"/><circle cx="1472" cy="660" r="0.5" opacity="0.28"/><circle cx="9" cy="743" r="0.5" opacity="0.36"/><circle cx="146" cy="826" r="0.5" opacity="0.44"/><circle cx="283" cy="9" r="0.5" opacity="0.52"/><circle cx="420" cy="92" r="0.5" opacity="0.6000000000000001"/><circle cx="557" cy="175" r="1.5" opacity="0.6799999999999999"/><circle cx="694" cy="258" r="0.5" opacity="0.76"/><circle cx="831" cy="341" r="0.5" opacity="0.8400000000000001"/><circle cx="968" cy="424" r="0.5" opacity="0.2"/><circle cx="1105" cy="507" r="0.5" opacity="0.28"/><circle cx="1242" cy="590" r="0.5" opacity="0.36"/><circle cx="1379" cy="673" r="0.5" opacity="0.44"/><circle cx="1516" cy="756" r="0.5" opacity="0.52"/><circle cx="53" cy="839" r="0.5" opacity="0.6000000000000001"/><circle cx="190" cy="22" r="0.5" opacity="0.6799999999999999"/><circle cx="327" cy="105" r="0.5" opacity="0.76"/><circle cx="464" cy="188" r="1.5" opacity="0.8400000000000001"/><circle cx="601" cy="271" r="0.5" opacity="0.2"/><circle cx="738" cy="354" r="0.5" opacity="0.28"/><circle cx="875" cy="437" r="0.5" opacity="0.36"/><circle cx="1012" cy="520" r="0.5" opacity="0.44"/><circle cx="1149" cy="603" r="2.5" opacity="0.52"/><circle cx="1286" cy="686" r="0.5" opacity="0.6000000000000001"/><circle cx="1423" cy="769" r="0.5" opacity="0.6799999999999999"/><circle cx="1560" cy="852" r="0.5" opacity="0.76"/><circle cx="97" cy="35" r="0.5" opacity="0.8400000000000001"/><circle cx="234" cy="118" r="0.5" opacity="0.2"/><circle cx="371" cy="201" r="1.5" opacity="0.28"/><circle cx="508" cy="284" r="0.5" opacity="0.36"/><circle cx="645" cy="367" r="0.5" opacity="0.44"/><circle cx="782" cy="450" r="0.5" opacity="0.52"/><circle cx="919" cy="533" r="0.5" opacity="0.6000000000000001"/><circle cx="1056" cy="616" r="0.5" opacity="0.6799999999999999"/><circle cx="1193" cy="699" r="0.5" opacity="0.76"/><circle cx="1330" cy="782" r="0.5" opacity="0.8400000000000001"/><circle cx="1467" cy="865" r="0.5" opacity="0.2"/><circle cx="4" cy="48" r="0.5" opacity="0.28"/><circle cx="141" cy="131" r="0.5" opacity="0.36"/><circle cx="278" cy="214" r="1.5" opacity="0.44"/><circle cx="415" cy="297" r="0.5" opacity="0.52"/><circle cx="552" cy="380" r="0.5" opacity="0.6000000000000001"/><circle cx="689" cy="463" r="0.5" opacity="0.6799999999999999"/><circle cx="826" cy="546" r="0.5" opacity="0.76"/><circle cx="963" cy="629" r="0.5" opacity="0.8400000000000001"/><circle cx="1100" cy="712" r="0.5" opacity="0.2"/><circle cx="1237" cy="795" r="0.5" opacity="0.28"/><circle cx="1374" cy="878" r="0.5" opacity="0.36"/><circle cx="1511" cy="61" r="0.5" opacity="0.44"/><circle cx="48" cy="144" r="0.5" opacity="0.52"/><circle cx="185" cy="227" r="1.5" opacity="0.6000000000000001"/><circle cx="322" cy="310" r="0.5" opacity="0.6799999999999999"/><circle cx="459" cy="393" r="0.5" opacity="0.76"/><circle cx="596" cy="476" r="0.5" opacity="0.8400000000000001"/><circle cx="733" cy="559" r="0.5" opacity="0.2"/><circle cx="870" cy="642" r="0.5" opacity="0.28"/><circle cx="1007" cy="725" r="0.5" opacity="0.36"/><circle cx="1144" cy="808" r="0.5" opacity="0.44"/><circle cx="1281" cy="891" r="0.5" opacity="0.52"/><circle cx="1418" cy="74" r="2.5" opacity="0.6000000000000001"/><circle cx="1555" cy="157" r="0.5" opacity="0.6799999999999999"/><circle cx="92" cy="240" r="1.5" opacity="0.76"/><circle cx="229" cy="323" r="0.5" opacity="0.8400000000000001"/><circle cx="366" cy="406" r="0.5" opacity="0.2"/><circle cx="503" cy="489" r="0.5" opacity="0.28"/><circle cx="640" cy="572" r="0.5" opacity="0.36"/><circle cx="777" cy="655" r="0.5" opacity="0.44"/><circle cx="914" cy="738" r="0.5" opacity="0.52"/><circle cx="1051" cy="821" r="0.5" opacity="0.6000000000000001"/><circle cx="1188" cy="4" r="0.5" opacity="0.6799999999999999"/><circle cx="1325" cy="87" r="0.5" opacity="0.76"/><circle cx="1462" cy="170" r="0.5" opacity="0.8400000000000001"/><circle cx="1599" cy="253" r="1.5" opacity="0.2"/><circle cx="136" cy="336" r="0.5" opacity="0.28"/><circle cx="273" cy="419" r="0.5" opacity="0.36"/><circle cx="410" cy="502" r="0.5" opacity="0.44"/><circle cx="547" cy="585" r="0.5" opacity="0.52"/><circle cx="684" cy="668" r="0.5" opacity="0.6000000000000001"/><circle cx="821" cy="751" r="0.5" opacity="0.6799999999999999"/><circle cx="958" cy="834" r="0.5" opacity="0.76"/><circle cx="1095" cy="17" r="0.5" opacity="0.8400000000000001"/><circle cx="1232" cy="100" r="0.5" opacity="0.2"/><circle cx="1369" cy="183" r="0.5" opacity="0.28"/><circle cx="1506" cy="266" r="1.5" opacity="0.36"/><circle cx="43" cy="349" r="0.5" opacity="0.44"/><circle cx="180" cy="432" r="0.5" opacity="0.52"/><circle cx="317" cy="515" r="0.5" opacity="0.6000000000000001"/><circle cx="454" cy="598" r="0.5" opacity="0.6799999999999999"/><circle cx="591" cy="681" r="0.5" opacity="0.76"/><circle cx="728" cy="764" r="0.5" opacity="0.8400000000000001"/><circle cx="865" cy="847" r="0.5" opacity="0.2"/><circle cx="1002" cy="30" r="0.5" opacity="0.28"/><circle cx="1139" cy="113" r="0.5" opacity="0.36"/><circle cx="1276" cy="196" r="0.5" opacity="0.44"/><circle cx="1413" cy="279" r="1.5" opacity="0.52"/><circle cx="1550" cy="362" r="0.5" opacity="0.6000000000000001"/><circle cx="87" cy="445" r="2.5" opacity="0.6799999999999999"/><circle cx="224" cy="528" r="0.5" opacity="0.76"/><circle cx="361" cy="611" r="0.5" opacity="0.8400000000000001"/><circle cx="498" cy="694" r="0.5" opacity="0.2"/><circle cx="635" cy="777" r="0.5" opacity="0.28"/><circle cx="772" cy="860" r="0.5" opacity="0.36"/><circle cx="909" cy="43" r="0.5" opacity="0.44"/><circle cx="1046" cy="126" r="0.5" opacity="0.52"/><circle cx="1183" cy="209" r="0.5" opacity="0.6000000000000001"/><circle cx="1320" cy="292" r="1.5" opacity="0.6799999999999999"/><circle cx="1457" cy="375" r="0.5" opacity="0.76"/><circle cx="1594" cy="458" r="0.5" opacity="0.8400000000000001"/><circle cx="131" cy="541" r="0.5" opacity="0.2"/><circle cx="268" cy="624" r="0.5" opacity="0.28"/><circle cx="405" cy="707" r="0.5" opacity="0.36"/><circle cx="542" cy="790" r="0.5" opacity="0.44"/><circle cx="679" cy="873" r="0.5" opacity="0.52"/><circle cx="816" cy="56" r="0.5" opacity="0.6000000000000001"/><circle cx="953" cy="139" r="0.5" opacity="0.6799999999999999"/><circle cx="1090" cy="222" r="0.5" opacity="0.76"/><circle cx="1227" cy="305" r="1.5" opacity="0.8400000000000001"/><circle cx="1364" cy="388" r="0.5" opacity="0.2"/><circle cx="1501" cy="471" r="0.5" opacity="0.28"/><circle cx="38" cy="554" r="0.5" opacity="0.36"/><circle cx="175" cy="637" r="0.5" opacity="0.44"/><circle cx="312" cy="720" r="0.5" opacity="0.52"/><circle cx="449" cy="803" r="0.5" opacity="0.6000000000000001"/><circle cx="586" cy="886" r="0.5" opacity="0.6799999999999999"/><circle cx="723" cy="69" r="0.5" opacity="0.76"/><circle cx="860" cy="152" r="0.5" opacity="0.8400000000000001"/><circle cx="997" cy="235" r="0.5" opacity="0.2"/><circle cx="1134" cy="318" r="1.5" opacity="0.28"/><circle cx="1271" cy="401" r="0.5" opacity="0.36"/><circle cx="1408" cy="484" r="0.5" opacity="0.44"/><circle cx="1545" cy="567" r="0.5" opacity="0.52"/><circle cx="82" cy="650" r="0.5" opacity="0.6000000000000001"/><circle cx="219" cy="733" r="0.5" opacity="0.6799999999999999"/><circle cx="356" cy="816" r="2.5" opacity="0.76"/><circle cx="493" cy="899" r="0.5" opacity="0.8400000000000001"/><circle cx="630" cy="82" r="0.5" opacity="0.2"/><circle cx="767" cy="165" r="0.5" opacity="0.28"/><circle cx="904" cy="248" r="0.5" opacity="0.36"/><circle cx="1041" cy="331" r="1.5" opacity="0.44"/><circle cx="1178" cy="414" r="0.5" opacity="0.52"/><circle cx="1315" cy="497" r="0.5" opacity="0.6000000000000001"/><circle cx="1452" cy="580" r="0.5" opacity="0.6799999999999999"/><circle cx="1589" cy="663" r="0.5" opacity="0.76"/><circle cx="126" cy="746" r="0.5" opacity="0.8400000000000001"/><circle cx="263" cy="829" r="0.5" opacity="0.2"/><circle cx="400" cy="12" r="0.5" opacity="0.28"/><circle cx="537" cy="95" r="0.5" opacity="0.36"/><circle cx="674" cy="178" r="0.5" opacity="0.44"/><circle cx="811" cy="261" r="0.5" opacity="0.52"/><circle cx="948" cy="344" r="1.5" opacity="0.6000000000000001"/><circle cx="1085" cy="427" r="0.5" opacity="0.6799999999999999"/><circle cx="1222" cy="510" r="0.5" opacity="0.76"/><circle cx="1359" cy="593" r="0.5" opacity="0.8400000000000001"/><circle cx="1496" cy="676" r="0.5" opacity="0.2"/><circle cx="33" cy="759" r="0.5" opacity="0.28"/><circle cx="170" cy="842" r="0.5" opacity="0.36"/><circle cx="307" cy="25" r="0.5" opacity="0.44"/><circle cx="444" cy="108" r="0.5" opacity="0.52"/><circle cx="581" cy="191" r="0.5" opacity="0.6000000000000001"/><circle cx="718" cy="274" r="0.5" opacity="0.6799999999999999"/><circle cx="855" cy="357" r="1.5" opacity="0.76"/><circle cx="992" cy="440" r="0.5" opacity="0.8400000000000001"/><circle cx="1129" cy="523" r="0.5" opacity="0.2"/><circle cx="1266" cy="606" r="0.5" opacity="0.28"/><circle cx="1403" cy="689" r="0.5" opacity="0.36"/><circle cx="1540" cy="772" r="0.5" opacity="0.44"/><circle cx="77" cy="855" r="0.5" opacity="0.52"/><circle cx="214" cy="38" r="0.5" opacity="0.6000000000000001"/><circle cx="351" cy="121" r="0.5" opacity="0.6799999999999999"/><circle cx="488" cy="204" r="0.5" opacity="0.76"/><circle cx="625" cy="287" r="2.5" opacity="0.8400000000000001"/><circle cx="762" cy="370" r="1.5" opacity="0.2"/><circle cx="899" cy="453" r="0.5" opacity="0.28"/><circle cx="1036" cy="536" r="0.5" opacity="0.36"/></g><g fill="#dff8ff"><circle cx="270" cy="180" r="3"/><circle cx="270" cy="180" r="12" fill="none" stroke="#dff8ff" stroke-opacity=".2"/><circle cx="1180" cy="230" r="3"/><circle cx="1180" cy="230" r="12" fill="none" stroke="#dff8ff" stroke-opacity=".2"/><circle cx="1370" cy="690" r="3"/><circle cx="1370" cy="690" r="12" fill="none" stroke="#dff8ff" stroke-opacity=".2"/><circle cx="510" cy="640" r="3"/><circle cx="510" cy="640" r="12" fill="none" stroke="#dff8ff" stroke-opacity=".2"/><circle cx="820" cy="110" r="3"/><circle cx="820" cy="110" r="12" fill="none" stroke="#dff8ff" stroke-opacity=".2"/><circle cx="1460" cy="300" r="3"/><circle cx="1460" cy="300" r="12" fill="none" stroke="#dff8ff" stroke-opacity=".2"/></g></svg>